<svg width="14" height="14" viewBox="0 0 14 14" fill="none" xmlns="http://www.w3.org/2000/svg">
<path d="M11.6946 1.97738H10.7657V1.32579C10.7657 1.14661 10.6301 1 10.4644 1C10.2987 1 10.1632 1.14661 10.1632 1.32579V1.97738H4.01255V1.32579C4.01255 1.14661 3.87699 1 3.7113 1C3.54561 1 3.41004 1.14661 3.41004 1.32579V1.97738H2.30544C1.58494 1.97738 1 2.60181 1 3.381V4.9448V5.59638V11.5882C1 12.3674 1.58494 13 2.30544 13H11.6946C12.4151 13 13 12.3674 13 11.5882V5.59638V4.9448V3.381C13 2.60181 12.4151 1.97738 11.6946 1.97738ZM12.3975 11.5882C12.3975 12.0063 12.0837 12.3484 11.6946 12.3484H2.30544C1.91883 12.3484 1.60251 12.0063 1.60251 11.5882V5.58824H12.3975V11.5882ZM1.60251 4.93665V3.381C1.60251 2.9629 1.91632 2.62896 2.30544 2.62896H3.41004V3.1095C3.41004 3.28869 3.54561 3.43529 3.7113 3.43529C3.87699 3.43529 4.01255 3.28869 4.01255 3.1095V2.62896H10.1632V3.1095C10.1632 3.28869 10.2987 3.43529 10.4644 3.43529C10.6301 3.43529 10.7657 3.28869 10.7657 3.1095V2.62896H11.6946C12.0812 2.62896 12.3975 2.9629 12.3975 3.381V4.93665H1.60251Z" fill="#333333" stroke="#333333" stroke-width="0.5"/>
</svg>
