<svg width="16" height="11" viewBox="0 -5 16 16" xmlns="http://www.w3.org/2000/svg">
<path d="M1.71423 0C0.762625 0 0 0.773054 0 1.69012V9.30411C0 10.2212 0.762659 11 1.71423 11H14.2858C15.2374 11 16 10.2212 16 9.30411V1.69012C16 0.773054 15.2373 0 14.2858 0H1.71423ZM1.79754 1.10008H14.2085L8.33943 6.46264C8.12592 6.65779 7.88688 6.65805 7.67269 6.46264L1.79754 1.10008ZM1.14277 2.01676L5.03566 5.56888L1.14277 9.30434V2.01676ZM14.8572 2.01676V9.30434L10.9762 5.56299L14.8572 2.01676V2.01676ZM10.1548 6.31958L13.8629 9.90051H2.14278L5.86322 6.32547L6.88711 7.25927C7.50772 7.82541 8.50477 7.8263 9.12525 7.25927L10.1548 6.31958Z" fill="black"/>
</svg>