<svg width="27" height="21" viewBox="0 0 27 21" fill="none" xmlns="http://www.w3.org/2000/svg">
  <path d="M25.2001 0H1.6801C0.75215 0 0 0.75215 0 1.6801C0 2.60805 0.75215 3.3602 1.6801 3.3602H25.2001C26.1281 3.3602 26.8802 2.60805 26.8802 1.6801C26.8802 0.75215 26.1281 0 25.2001 0Z"/>
  <path d="M25.2001 8.4001H1.6801C0.75215 8.4001 -4.76837e-07 9.15225 -4.76837e-07 10.0802C-4.76837e-07 11.0082 0.75215 11.7603 1.6801 11.7603H25.2001C26.1281 11.7603 26.8802 11.0082 26.8802 10.0802C26.8802 9.15225 26.1281 8.4001 25.2001 8.4001Z"/>
  <path d="M1.6801 16.8001H25.2001C26.1281 16.8001 26.8802 17.5523 26.8802 18.4802C26.8802 19.4082 26.1281 20.1603 25.2001 20.1603H1.6801C0.75215 20.1603 -4.76837e-07 19.4082 -4.76837e-07 18.4802C-4.76837e-07 17.5523 0.75215 16.8001 1.6801 16.8001V16.8001Z"/>
</svg>