<svg width="25" height="29" viewBox="0 0 25 29" fill="none" xmlns="http://www.w3.org/2000/svg">
<path fill-rule="evenodd" clip-rule="evenodd" d="M17.9729 9.70814C19.8291 11.0344 22.1034 11.8148 24.5594 11.8148V7.09079C24.0945 7.09097 23.6309 7.04248 23.1762 6.9461V10.6646C20.7203 10.6646 18.4464 9.8842 16.5896 8.55797V18.1981C16.5896 23.0207 12.6783 26.9298 7.85353 26.9298C6.05339 26.9298 4.38012 26.3859 2.99011 25.453C4.57654 27.0742 6.78885 28.08 9.23641 28.08C14.0615 28.08 17.973 24.1708 17.973 19.3481V9.70814H17.9729ZM19.6792 4.94225C18.7305 3.90641 18.1077 2.56762 17.9729 1.08755V0.47998H16.6621C16.992 2.36103 18.1174 3.96815 19.6792 4.94225ZM6.04168 21.7524C5.51171 21.0579 5.22523 20.2081 5.22651 19.3344C5.22651 17.1287 7.01562 15.3404 9.22284 15.3404C9.63414 15.3401 10.043 15.4032 10.4351 15.5275V10.698C9.97699 10.6353 9.51466 10.6087 9.05238 10.6185V14.3775C8.66013 14.2532 8.25108 14.1901 7.83962 14.1904C5.6324 14.1904 3.84345 15.9787 3.84345 18.1846C3.84345 19.7442 4.73767 21.0947 6.04168 21.7524Z" fill="#B1953A"/>
<path fill-rule="evenodd" clip-rule="evenodd" d="M16.5895 8.55797C18.4463 9.8842 20.7202 10.6646 23.176 10.6646V6.9461C21.8052 6.65436 20.5916 5.93824 19.6791 4.94225C18.1172 3.96815 16.9918 2.36103 16.6619 0.47998H13.2189V19.348C13.2111 21.5475 11.425 23.3285 9.22253 23.3285C7.92463 23.3285 6.77157 22.7103 6.04137 21.7524C4.73736 21.0947 3.84314 19.7442 3.84314 18.1846C3.84314 15.9787 5.63209 14.1904 7.83931 14.1904C8.26216 14.1904 8.66975 14.2562 9.05207 14.3775V10.6185C4.31213 10.7163 0.5 14.5873 0.5 19.3481C0.5 21.7246 1.44934 23.8791 2.98997 25.4531C4.37998 26.386 6.05325 26.93 7.85339 26.93C12.6781 26.93 16.5895 23.0207 16.5895 18.1983V8.55797Z" fill="#B1953A"/>
</svg>
