<svg width="450" height="444" viewBox="0 0 450 444" xmlns="http://www.w3.org/2000/svg">
<path d="M181.35 0.757996C121.424 12.66 70.23 48.578 37.69 97.985H120.038C134.124 53.934 155.753 19.407 181.35 0.757996V0.757996ZM268.659 0.757996C294.257 19.41 315.686 53.938 329.971 97.985H412.119C379.775 48.579 328.381 12.661 268.659 0.757996V0.757996ZM236.116 9.08999V97.985H308.143C292.069 49.965 266.87 15.637 236.116 9.08999V9.08999ZM213.694 9.28922C183.53 16.4298 158.729 50.3632 142.854 97.9842H213.69V9.28922H213.694ZM24.594 120.609C10.903 147.992 2.57103 178.351 0.981026 210.695H101.781C102.574 178.55 106.742 148.191 113.687 120.609H24.594ZM136.504 120.609C129.559 147.992 125.59 178.746 124.797 210.695H213.692V120.609H136.504ZM236.113 120.609V210.695H326.199C325.406 178.746 321.437 147.992 314.492 120.609H236.113ZM336.313 120.609C343.059 148.191 347.426 178.55 348.219 210.695H449.019C447.433 178.351 439.101 147.992 425.41 120.609H336.313ZM0.973022 233.309C2.55892 265.653 10.8949 296.211 24.586 323.395H113.481C106.735 296.012 102.567 265.457 101.774 233.309H0.973022ZM124.793 233.309C125.586 265.454 129.555 296.012 136.5 323.395H213.688V233.309H124.793ZM236.113 233.309V323.395H314.492C321.437 296.012 325.605 265.454 326.199 233.309H236.113ZM348.223 233.309C347.43 265.454 343.262 296.012 336.516 323.395H425.411C439.102 296.211 447.434 265.653 449.024 233.309H348.223ZM37.693 346.019C70.037 395.425 121.228 431.343 180.953 443.246C155.555 424.598 134.125 390.07 120.035 346.019H37.687H37.693ZM142.853 346.019C158.728 393.839 183.333 427.968 213.689 434.914V346.019H142.853ZM236.115 346.019V435.113C267.068 428.566 292.267 394.238 308.142 346.019H236.115ZM329.97 346.019C315.88 390.07 294.45 424.597 269.052 443.246C328.779 431.34 379.972 395.426 412.312 346.019H329.964H329.97Z" />
</svg>
