<svg width="30" height="24" viewBox="0 0 30 24" fill="none" xmlns="http://www.w3.org/2000/svg">
<g clip-path="url(#clip0_437_2)">
<path d="M25.3963 2.13721C23.4842 1.23114 21.4337 0.563594 19.2899 0.181261C19.2508 0.173882 19.2118 0.192322 19.1917 0.229204C18.928 0.713572 18.6359 1.34547 18.4314 1.84214C16.1255 1.48563 13.8315 1.48563 11.5729 1.84214C11.3683 1.33443 11.0656 0.713572 10.8007 0.229204C10.7806 0.193553 10.7416 0.175112 10.7026 0.181261C8.55989 0.562372 6.50945 1.22992 4.59617 2.13721C4.57961 2.14458 4.56541 2.15689 4.55599 2.17286C0.66674 8.17347 -0.398688 14.0266 0.123975 19.8071C0.12634 19.8354 0.141712 19.8625 0.162998 19.8797C2.72901 21.8258 5.21463 23.0072 7.6541 23.7903C7.69314 23.8026 7.73451 23.7879 7.75935 23.7547C8.33641 22.9408 8.8508 22.0827 9.29184 21.1803C9.31787 21.1275 9.29303 21.0648 9.23983 21.0439C8.42392 20.7243 7.647 20.3345 6.89966 19.892C6.84055 19.8563 6.83582 19.769 6.8902 19.7272C7.04747 19.6055 7.20477 19.4789 7.35494 19.351C7.38211 19.3277 7.41997 19.3227 7.45192 19.3375C12.3616 21.6524 17.6769 21.6524 22.5287 19.3375C22.5606 19.3215 22.5985 19.3264 22.6268 19.3498C22.7771 19.4776 22.9343 19.6055 23.0928 19.7272C23.1472 19.769 23.1436 19.8563 23.0845 19.892C22.3372 20.3431 21.5602 20.7243 20.7431 21.0427C20.6899 21.0636 20.6663 21.1275 20.6923 21.1803C21.1428 22.0815 21.6572 22.9396 22.2236 23.7534C22.2473 23.7879 22.2898 23.8026 22.3289 23.7903C24.7802 23.0072 27.2658 21.8258 29.8318 19.8797C29.8543 19.8625 29.8685 19.8366 29.8708 19.8084C30.4964 13.1254 28.8231 7.32029 25.4353 2.17408C25.427 2.15689 25.4128 2.14458 25.3963 2.13721ZM10.025 16.2874C8.54687 16.2874 7.32892 14.8859 7.32892 13.1648C7.32892 11.4436 8.52325 10.0422 10.025 10.0422C11.5386 10.0422 12.7448 11.4559 12.7211 13.1648C12.7211 14.8859 11.5268 16.2874 10.025 16.2874ZM19.9934 16.2874C18.5153 16.2874 17.2974 14.8859 17.2974 13.1648C17.2974 11.4436 18.4917 10.0422 19.9934 10.0422C21.507 10.0422 22.7132 11.4559 22.6895 13.1648C22.6895 14.8859 21.507 16.2874 19.9934 16.2874Z" fill="#B1953A"/>
</g>
<defs>
<clipPath id="clip0_437_2">
<rect width="30" height="24" fill="white"/>
</clipPath>
</defs>
</svg>
