<svg width="29" height="28" viewBox="0 0 29 28" fill="none" xmlns="http://www.w3.org/2000/svg">
<path d="M29 14.0567C28.9941 11.366 28.1951 8.73318 26.6975 6.46972C25.1999 4.20626 23.0663 2.40685 20.5491 1.28434C18.0319 0.161828 15.2364 -0.23682 12.4934 0.135552C9.75028 0.507923 7.17438 1.63573 5.07034 3.38558C2.96629 5.13542 1.42215 7.43409 0.620548 10.0097C-0.181052 12.5852 -0.206564 15.33 0.547029 17.9192C1.30062 20.5084 2.80179 22.8338 4.87296 24.6203C6.94413 26.4068 9.49865 27.5796 12.2344 28V18.1368H8.55274V14.0567H12.2344V10.9471C12.2344 7.40956 14.3991 5.45555 17.7113 5.45555C18.7987 5.47028 19.8835 5.56242 20.957 5.73123V9.20478H19.1286C18.8167 9.1649 18.4996 9.19368 18.2007 9.28897C17.9018 9.38427 17.6288 9.54365 17.4019 9.75531C17.175 9.96697 17 10.2255 16.8899 10.5118C16.7797 10.798 16.7373 11.1047 16.7656 11.409V14.0567H20.7871L20.1442 18.1368H16.7656V28C20.1793 27.4706 23.2867 25.7757 25.5293 23.2199C27.7718 20.6641 29.0025 17.4151 29 14.0567Z" fill="#B1953A"/>
</svg>
