<svg width="9" height="2" viewBox="0 0 9 2" fill="none" xmlns="http://www.w3.org/2000/svg">
  <path d="M1.5 1.5C1.77614 1.5 2 1.27614 2 1C2 0.723858 1.77614 0.5 1.5 0.5C1.22386 0.5 1 0.723858 1 1C1 1.27614 1.22386 1.5 1.5 1.5Z" stroke="#000001" stroke-linecap="round" stroke-linejoin="round"/>
  <path d="M4.75 1.5C5.02614 1.5 5.25 1.27614 5.25 1C5.25 0.723858 5.02614 0.5 4.75 0.5C4.47386 0.5 4.25 0.723858 4.25 1C4.25 1.27614 4.47386 1.5 4.75 1.5Z" stroke="#000001" stroke-linecap="round" stroke-linejoin="round"/>
  <path d="M8 1.5C8.27614 1.5 8.5 1.27614 8.5 1C8.5 0.723858 8.27614 0.5 8 0.5C7.72386 0.5 7.5 0.723858 7.5 1C7.5 1.27614 7.72386 1.5 8 1.5Z" stroke="#000001" stroke-linecap="round" stroke-linejoin="round"/>
</svg>
