<svg width="14" height="14" viewBox="0 0 14 14" fill="none" xmlns="http://www.w3.org/2000/svg">
  <path d="M3 13.25V5.75" stroke="#000001" stroke-linecap="round" stroke-linejoin="round"/>
  <path d="M5.5 13.25V7.75" stroke="#000001" stroke-linecap="round" stroke-linejoin="round"/>
  <path d="M8.5 13.25V7.75" stroke="#000001" stroke-linecap="round" stroke-linejoin="round"/>
  <path d="M11 13.25V5.75" stroke="#000001" stroke-linecap="round" stroke-linejoin="round"/>
  <path d="M11 0.75H3C2.54922 0.749768 2.10677 0.871422 1.71947 1.10208C1.33218 1.33275 1.01445 1.66383 0.799938 2.0603C0.585421 2.45676 0.482091 2.90385 0.500887 3.35424C0.519683 3.80463 0.659905 4.24155 0.90671 4.61877C1.15352 4.99598 1.49772 5.29944 1.90289 5.49703C2.30805 5.69463 2.75911 5.77899 3.2083 5.7412C3.65749 5.70341 4.08811 5.54487 4.45457 5.28236C4.82103 5.01985 5.10969 4.66315 5.29 4.25H8.71C8.89031 4.66315 9.17898 5.01985 9.54543 5.28236C9.91189 5.54487 10.3425 5.70341 10.7917 5.7412C11.2409 5.77899 11.6919 5.69463 12.0971 5.49703C12.5023 5.29944 12.8465 4.99598 13.0933 4.61877C13.3401 4.24155 13.4803 3.80463 13.4991 3.35424C13.5179 2.90385 13.4146 2.45676 13.2001 2.0603C12.9855 1.66383 12.6678 1.33275 12.2805 1.10208C11.8932 0.871422 11.4508 0.749768 11 0.75V0.75Z" stroke="#000001" stroke-linecap="round" stroke-linejoin="round"/>
</svg>
