<svg width="10" height="14" viewBox="0 0 10 14" fill="none" xmlns="http://www.w3.org/2000/svg">
  <path d="M9.5 5C9.5 7.49 5 13.5 5 13.5C5 13.5 0.5 7.49 0.5 5C0.5 3.80653 0.974106 2.66193 1.81802 1.81802C2.66193 0.974106 3.80653 0.5 5 0.5C6.19347 0.5 7.33807 0.974106 8.18198 1.81802C9.02589 2.66193 9.5 3.80653 9.5 5V5Z" stroke="#000001" stroke-linecap="round" stroke-linejoin="round"/>
  <path d="M5 6.5C5.82843 6.5 6.5 5.82843 6.5 5C6.5 4.17157 5.82843 3.5 5 3.5C4.17157 3.5 3.5 4.17157 3.5 5C3.5 5.82843 4.17157 6.5 5 6.5Z" stroke="#000001" stroke-linecap="round" stroke-linejoin="round"/>
</svg>
